HIERARCHY
ROOT pelvis
{
  OFFSET 0 100 0
  CHANNELS 6 Xposition Yposition Zposition Zrotation Xrotation Yrotation
  JOINT pelvis_right_femur
  {
    OFFSET -10.78128 -3.44521 -0.5502486
    CHANNELS 3 Zrotation Xrotation Yrotation
    JOINT right_femur_tibia
    {
      OFFSET -0.8047443 -44.0398 -0.1307829
      CHANNELS 3 Zrotation Xrotation Yrotation
      JOINT right_tibia_foot
      {
        OFFSET 3.006224 -47.83518 -5
        CHANNELS 3 Zrotation Xrotation Yrotation
        End Site
        {
          OFFSET 0 -5 15
        }
      }
    }
  }
  JOINT pelvis_left_femur
  {
    OFFSET 10.78128 -3.44521 -0.5502486
    CHANNELS 3 Zrotation Xrotation Yrotation
    JOINT left_femur_tibia
    {
      OFFSET 0.8047443 -44.0398 -0.1307829
      CHANNELS 3 Zrotation Xrotation Yrotation
      JOINT left_tibia_foot
      {
        OFFSET -4.370144 -48.10324 -4.275266
        CHANNELS 3 Zrotation Xrotation Yrotation
        End Site
        {
          OFFSET 0 -5 15
        }
      }
    }
  }
  JOINT pelvis_spine1
  {
    OFFSET 0 6.468898 -3.129235
    CHANNELS 3 Zrotation Xrotation Yrotation
    JOINT spine1
    {
      OFFSET 0 23.15396 4.99043
      CHANNELS 3 Zrotation Xrotation Yrotation
      JOINT spine2
      {
        OFFSET 0 20.79997 -5.064912
        CHANNELS 3 Zrotation Xrotation Yrotation
        JOINT neck
        {
          OFFSET 0 14.38658 9.616178
          CHANNELS 3 Zrotation Xrotation Yrotation
          End Site
          {
            OFFSET 0 20 0
          }
        }
      }
      JOINT right_manubrium
      {
        OFFSET -5.722621 16.35077 3.967754
        CHANNELS 3 Zrotation Xrotation Yrotation
        JOINT right_clavicle
        {
          OFFSET -13.16364 1.694482 -4.693211
          CHANNELS 3 Zrotation Xrotation Yrotation
          JOINT right_humerus
          {
            OFFSET -28.5034 -0.3100689 -2.792744
            CHANNELS 3 Zrotation Xrotation Yrotation
            JOINT right_radius
            {
              OFFSET -25.15693 0.02248979 -1.271978
              CHANNELS 3 Zrotation Xrotation Yrotation
              End Site
              {
                OFFSET -15 0 0
              }
            }
          }
        }
      }
      JOINT left_manubrium
      {
        OFFSET 5.722621 16.35077 3.967754
        CHANNELS 3 Zrotation Xrotation Yrotation
        JOINT left_clavicle
        {
          OFFSET 13.16364 1.694482 -4.693211
          CHANNELS 3 Zrotation Xrotation Yrotation
          JOINT left_humerus
          {
            OFFSET 29.39168 -1.063119 -2.237045
            CHANNELS 3 Zrotation Xrotation Yrotation
            JOINT left_radius
            {
              OFFSET 24.59957 -0.9528479 0.9047498
              CHANNELS 3 Zrotation Xrotation Yrotation
              End Site
              {
                OFFSET 15 -0 -0
              }
            }
          }
        }
      }
    }
  }
}
MOTION
Frames: 7
Frame Time: 0.0416666666667
-394.3963 118.126 2933.78 -1.826463 -2.968654 -25.29543 3.84283 -27.19804 -0.9908485 -0 8.44687 -0 -6.096367 -0.9319973 -5.021028 -3.861773 16.17649 -8.44756 -0 22.42847 -0 -3.685993 -17.56564 12.17081 0.7885403 -2.521517 2.916435 1.49344 14.60585 -8.626773 1.474398 22.10904 4.220332 1.734966 -21.06626 6.313502 -4.204643 -21.45573 11.56934 98.78755 16.2589 -24.60921 -0 0 8.40417 -17.74278 9.124583 6.099726 5.96671 -28.30789 -8.21667 -85.85392 12.98986 14.10675 0 0 -26.17374 15.41336 14.85236 -5.981538
-397.5079 117.7928 2939.511 -2.159636 -3.685922 -25.26775 4.231989 -25.47815 -0.5830229 -0 9.749076 -0 -5.769145 -0.2424061 -5.443873 -3.82302 15.32707 -7.61648 -0 29.56555 -0 -4.724206 -15.93156 11.71305 0.8820326 -2.605318 2.969573 1.505289 14.71659 -8.654046 1.466904 22.07793 4.144001 1.671584 -21.22769 6.283964 -4.400732 -21.76069 11.57507 98.98283 15.95815 -24.65042 -0 0 8.605707 -17.56938 8.995041 6.006221 5.907709 -28.40563 -8.283596 -86.03843 13.00512 14.59528 0 0 -26.16517 15.45115 15.00908 -5.966984
-400.6742 117.9852 2945.311 -2.512186 -4.490127 -25.38923 4.783497 -22.09051 0.2807398 -0 11.73764 -0 -5.48363 -0.4454168 -5.757142 -3.674792 12.96185 -7.045688 -0 37.85386 -0 -5.542313 -13.68675 11.83407 0.9790629 -2.678524 3.196502 1.431489 14.8407 -8.516325 1.460611 22.03906 4.035225 1.605749 -21.35377 6.213492 -4.576555 -22.31307 11.59066 98.85359 15.73937 -24.16269 -0 0 9.359767 -17.5735 8.882014 6.119499 5.774916 -28.25484 -8.291956 -86.55097 13.04212 15.77566 0 0 -25.44929 15.27932 15.1742 -5.687156
-403.8001 118.6923 2950.999 -2.839837 -5.194497 -25.71961 5.418328 -17.41047 1.418818 -0 13.45124 -0 -5.396263 -1.793521 -5.841545 -3.361906 9.18013 -6.794414 -0 46.03045 -0 -6.004039 -11.11277 12.54458 1.081111 -2.743653 3.591424 1.27516 14.98092 -8.220256 1.454138 21.9917 3.895013 1.538631 -21.44986 6.10193 -4.734804 -23.10964 11.61639 98.42024 15.59193 -23.16808 -0 0 10.64783 -17.74501 8.781567 6.429503 5.572119 -27.86988 -8.244466 -87.39348 13.07068 17.62901 0 0 -24.04898 14.91911 15.3487 -5.169009
-406.8152 119.7589 2956.448 -3.099407 -5.66286 -26.28103 5.958463 -12.06733 2.491371 -0 14.16551 -0 -5.532166 -4.067121 -5.63685 -2.886391 4.407286 -6.746268 -0 52.24703 -0 -6.091057 -8.656795 13.64935 1.192821 -2.806676 4.123147 1.053313 15.13879 -7.799508 1.446911 21.93564 3.725656 1.466683 -21.53239 5.956258 -4.889936 -24.11815 11.64962 97.76305 15.47315 -21.77313 -0 0 12.3727 -18.03746 8.681802 6.889614 5.310087 -27.30416 -8.154244 -88.52438 13.06497 20.04336 0 0 -22.10457 14.40772 15.53639 -4.456011
-409.6985 120.9198 2961.668 -3.259999 -5.853418 -27.03743 6.242613 -6.749867 3.145526 -0 13.57072 -0 -5.787225 -6.670496 -5.155567 -2.266239 -0.7453127 -6.655293 -0 54.75954 -0 -5.881589 -6.77146 14.82737 1.314123 -2.870457 4.732149 0.795358 15.30711 -7.311174 1.439471 21.87367 3.537024 1.387703 -21.61496 5.792074 -5.051586 -25.2544 11.68483 97.00111 15.34283 -20.16239 -0 0 14.34614 -18.38514 8.575217 7.426617 5.011713 -26.64085 -8.039889 -89.83906 13.01122 22.78032 0 0 -19.86624 13.79957 15.73273 -3.615369
-412.47 121.8867 2966.776 -3.31177 -5.816663 -27.90983 6.215574 -1.886418 3.218951 -0 11.89188 -0 -6.017714 -9.028506 -4.455365 -1.515721 -5.782937 -6.328907 -0 52.85972 -0 -5.474112 -5.692378 15.83893 1.431265 -2.925064 5.365118 0.5220949 15.46478 -6.794867 1.433803 21.81269 3.347111 1.30879 -21.68306 5.625671 -5.19962 -26.40961 11.71782 96.19448 15.21441 -18.46966 -0 0 16.39497 -18.76512 8.475453 7.998794 4.702569 -25.92907 -7.90698 -91.22231 12.90927 25.58639 0 0 -17.5266 13.13012 15.91102 -2.699626
